#!OML:ASF H:\ManfredETheater\Project 1\Capture day 1\Session 1\subject.ASF
:FULLY-SPECIFIED
:DEGREES
137
root 0.624385 2.44802 -15.9531 114.321 23.5774 -155.526
lowerback 24.039 0.556763 -11.8532
upperback 7.69936 -0.663825 2.74243
thorax -4.45866 0.112352 10.026
lowerneck -8.76073 -6.27175 -7.06089
upperneck 12.8483 -8.065 4.43981
head 5.79123 -3.91249 1.90959
rclavicle 1.11319e-014 6.04305e-014
rhumerus 18.0853 -3.27928 -52.3105
rradius 87.3415
rwrist -12.2206
rhand -34.8013 -8.06651
rfingers 7.12502
rthumb -7.95303 -37.8969
lclavicle 1.11319e-014 6.04305e-014
lhumerus -36.3181 6.60385 75.9703
lradius 86.7046
lwrist -13.4613
lhand -30.353 10.7822
lfingers 7.12502
lthumb -3.65833 40.7306
rfemur -115.068 -72.2639 42.5935
rtibia 141.18
rfoot 11.928 -0.432099
rtoes 7.52413
lfemur -79.8341 25.6953 -35.46
ltibia 125.793
lfoot 2.78281 5.0914
ltoes 7.96023
138
root 0.636387 2.53253 -16.1617 117.726 20.4952 -154.312
lowerback 23.7214 0.599333 -12.9708
upperback 7.4958 -0.880858 2.45569
thorax -4.42601 -0.00620857 10.4078
lowerneck -8.88899 -6.33733 -7.08764
upperneck 12.9096 -8.21212 4.96029
head 5.86383 -3.94151 2.05971
rclavicle 3.81667e-014 1.08139e-013
rhumerus 18.973 -4.53772 -50.4745
rradius 86.6421
rwrist -12.4728
rhand -34.6274 -7.81904
rfingers 7.12502
rthumb -7.78518 -37.6557
lclavicle 3.81667e-014 1.08139e-013
lhumerus -36.8309 6.94585 75.1304
lradius 82.6399
lwrist -14.0484
lhand -30.385 10.4779
lfingers 7.12502
lthumb -3.68924 40.4257
rfemur -113.915 -70.0508 39.1146
rtibia 139.475
rfoot 10.9195 0.469754
rtoes 3.49582
lfemur -79.2081 24.0068 -37.7007
ltibia 122.633
lfoot 0.0674876 7.86492
ltoes 1.94706
139
root 0.656573 2.62851 -16.366 121.012 18.0896 -152.855
lowerback 23.547 0.550311 -13.2836
upperback 7.41602 -0.993194 2.42205
thorax -4.38146 -0.0621974 10.5785
lowerneck -8.97004 -6.42238 -7.18606
upperneck 12.9005 -8.37804 5.48044
head 5.91169 -3.98455 2.22143
rclavicle -5.24792e-014 6.52014e-014
rhumerus 19.6617 -5.97176 -48.5942
rradius 86.1748
rwrist -12.2523
rhand -34.4819 -7.35454
rfingers 7.12502
rthumb -7.64474 -37.1964
lclavicle -5.24792e-014 6.52014e-014
lhumerus -36.7056 7.17412 74.5661
lradius 78.2134
lwrist -14.2795
lhand -30.4001 10.5443
lfingers 7.12502
lthumb -3.70379 40.4919
rfemur -112.159 -67.7346 36.1296
rtibia 137.702
rfoot 9.66632 1.33574
rtoes -0.387801
lfemur -79.4376 23.2986 -39.9698
ltibia 120.206
lfoot -2.56888 8.8887
ltoes -9.27513
140
root 0.687544 2.73469 -16.5684 124.129 16.2081 -151.14
lowerback 23.5527 0.434484 -12.9072
upperback 7.44239 -1.01023 2.59198
thorax -4.36164 -0.0586642 10.5557
lowerneck -9.07144 -6.51964 -7.32008
upperneck 12.9222 -8.55298 5.97854
head 5.97519 -4.03454 2.38013
rclavicle -1.59028e-014 9.54166e-015
rhumerus 20.179 -7.53529 -46.7697
rradius 85.9024
rwrist -11.6916
rhand -34.3965 -6.82085
rfingers 7.12502
rthumb -7.56231 -36.6657
lclavicle -1.59028e-014 9.54166e-015
lhumerus -36.0465 7.22839 74.2821
lradius 73.5756
lwrist -14.8452
lhand -29.6646 10.2814
lfingers 7.12502
lthumb -2.99352 40.2401
rfemur -110.168 -65.3323 33.8605
rtibia 135.936
rfoot 8.22418 2.0338
rtoes -4.3603
lfemur -80.3923 23.3687 -42.2563
ltibia 118.675
lfoot -5.13391 8.38947
ltoes -23.4868
141
root 0.72793 2.85027 -16.7694 126.977 14.6463 -149.205
lowerback 23.8234 1.90455 -11.2828
upperback 7.47124 -1.34795 3.0793
thorax -4.6495 -1.3919 10.3635
lowerneck -9.17465 -6.63202 -7.50294
upperneck 12.9645 -8.74783 6.51364
head 6.05219 -4.09279 2.55624
rclavicle 1.27222e-014 -1.27222e-014
rhumerus 20.5715 -9.16436 -45.0525
rradius 85.7843
rwrist -11.0542
rhand -34.3234 -6.37238
rfingers 7.12502
rthumb -7.49175 -36.2197
lclavicle 1.27222e-014 -1.27222e-014
lhumerus -34.9525 7.01643 74.2365
lradius 68.8263
lwrist -16.3398
lhand -29.2427 9.91237
lfingers 7.12502
lthumb -2.58612 39.8764
rfemur -108.046 -62.9353 32.1324
rtibia 134.22
rfoot 6.72921 2.50489
rtoes -8.25657
lfemur -81.777 23.9555 -44.4921
ltibia 118.053
lfoot -7.37353 6.78667
ltoes -36.5223
142
root 0.776833 2.97322 -16.9703 129.527 13.1193 -147.188
lowerback 24.327 1.78932 -10.0585
upperback 7.64813 -1.30456 3.42603
thorax -4.75168 -1.40179 10.046
lowerneck -9.31625 -6.76632 -7.68981
upperneck 13.065 -8.97465 7.06204
head 6.1591 -4.16294 2.73269
rclavicle 1.27222e-014 4.45278e-014
rhumerus 20.8893 -10.8018 -43.4982
rradius 85.7757
rwrist -10.5796
rhand -34.244 -6.13665
rfingers 7.12502
rthumb -7.4151 -35.9867
lclavicle 1.27222e-014 4.45278e-014
lhumerus -33.5023 6.57062 74.3692
lradius 64.1126
lwrist -19.2603
lhand -29.1146 8.89359
lfingers 7.12502
lthumb -2.46242 38.8591
rfemur -106.103 -60.6272 30.7798
rtibia 132.585
rfoot 5.39957 2.75532
rtoes -11.9372
lfemur -83.3191 24.7065 -46.664
ltibia 118.217
lfoot -9.18547 4.49376
ltoes -45.7852
143
root 0.830523 3.10116 -17.1685 131.734 11.6463 -145.101
lowerback 25.1081 1.65469 -8.53059
upperback 7.88781 -1.26018 3.79398
thorax -4.92712 -1.42636 9.58342
lowerneck -9.46476 -6.91515 -7.86095
upperneck 13.1589 -9.23047 7.65732
head 6.27109 -4.24083 2.91872
rclavicle 8.11041e-014 8.5875e-014
rhumerus 21.1886 -12.3865 -42.1295
rradius 85.8318
rwrist -10.4452
rhand -34.1872 -6.17091
rfingers 7.12502
rthumb -7.36023 -36.0229
lclavicle 8.11041e-014 8.5875e-014
lhumerus -31.8377 5.98031 74.5928
lradius 59.6785
lwrist -23.8844
lhand -29.3732 7.26909
lfingers 7.12502
lthumb -2.7121 37.2316
rfemur -104.223 -58.3704 29.6954
rtibia 131.007
rfoot 4.35364 2.79351
rtoes -15.2436
lfemur -84.8086 25.5156 -48.434
ltibia 118.995
lfoot -10.4351 1.89726
ltoes -51.1508
144
root 0.886477 3.2338 -17.3611 133.601 10.0578 -143.1
lowerback 26.1414 1.50837 -6.96379
upperback 8.1588 -1.24302 4.12679
thorax -5.17819 -1.47364 9.07719
lowerneck -9.626 -7.0637 -7.98446
upperneck 13.2225 -9.49704 8.29255
head 6.37877 -4.31647 3.10883
rclavicle -3.65764e-014 -3.18055e-014
rhumerus 21.5175 -13.8662 -40.9536
rradius 85.9041
rwrist -10.7028
rhand -34.1582 -6.45757
rfingers 7.12502
rthumb -7.33224 -36.3105
lclavicle -3.65764e-014 -3.18055e-014
lhumerus -30.0665 5.34472 74.8412
lradius 55.6127
lwrist -30.133
lhand -30.7539 4.98554
lfingers 7.12502
lthumb -4.04552 34.9269
rfemur -102.557 -56.2102 28.7381
rtibia 129.452
rfoot 3.66525 2.7863
rtoes -18.3612
lfemur -86.0863 26.2282 -49.7933
ltibia 120.134
lfoot -11.1512 -0.491558
ltoes -52.7401
145
root 0.940779 3.37031 -17.5439 135.172 8.37558 -141.195
lowerback 27.3791 1.33561 -5.3828
upperback 8.44774 -1.25707 4.4311
thorax -5.49027 -1.54482 8.55161
lowerneck -9.81018 -7.20325 -8.04491
upperneck 13.2314 -9.76123 8.95898
head 6.47399 -4.38357 3.29889
rclavicle 8.90555e-014 2.22639e-014
rhumerus 21.9257 -15.2224 -39.9747
rradius 85.9488
rwrist -11.2809
rhand -34.1586 -6.94066
rfingers 7.12502
rthumb -7.33264 -36.7936
lclavicle 8.90555e-014 2.22639e-014
lhumerus -28.2423 4.66691 75.1211
lradius 52.135
lwrist -36.8718
lhand -33.4334 3.03295
lfingers 7.12502
lthumb -6.63258 32.9091
rfemur -101.077 -54.1205 27.8601
rtibia 127.871
rfoot 3.31898 2.89081
rtoes -21.0841
lfemur -87.0384 26.797 -50.5672
ltibia 121.356
lfoot -11.399 -2.63701
ltoes -51.6202
146
root 0.994335 3.51071 -17.7211 136.488 6.57021 -139.457
lowerback 28.7644 1.13276 -3.88244
upperback 8.73504 -1.31115 4.69548
thorax -5.85093 -1.64028 8.05312
lowerneck -10.0354 -7.3198 -8.02477
upperneck 13.1914 -9.9997 9.61891
head 6.55657 -4.43265 3.47585
rclavicle -2.22639e-014 3.49861e-014
rhumerus 22.4374 -16.4217 -39.1825
rradius 85.9297
rwrist -11.9843
rhand -34.2146 -7.56511
rfingers 7.12502
rthumb -7.38668 -37.4162
lclavicle -2.22639e-014 3.49861e-014
lhumerus -26.4215 3.96916 75.4532
lradius 49.3992
lwrist -42.8471
lhand -36.7165 1.84414
lfingers 7.12502
lthumb -9.80114 31.596
rfemur -99.8397 -52.1188 26.973
rtibia 126.269
rfoot 3.2404 3.25963
rtoes -23.2417
lfemur -87.8268 27.2484 -51.0699
ltibia 122.604
lfoot -11.374 -4.13382
ltoes -48.8261
147
root 1.04725 3.65545 -17.8917 137.601 4.66793 -137.889
lowerback 30.2498 0.904693 -2.49071
upperback 9.01294 -1.39605 4.93605
thorax -6.24528 -1.75442 7.61419
lowerneck -10.3026 -7.40873 -7.94161
upperneck 13.0874 -10.2006 10.2618
head 6.6206 -4.46069 3.64033
rclavicle -2.22639e-014 3.49861e-014
rhumerus 23.0778 -17.4657 -38.5762
rradius 85.8147
rwrist -12.5949
rhand -34.3296 -8.23786
rfingers 7.12502
rthumb -7.49774 -38.085
lclavicle -2.22639e-014 3.49861e-014
lhumerus -24.6217 3.18004 75.8707
lradius 47.4326
lwrist -46.972
lhand -39.7376 1.34481
lfingers 7.12502
lthumb -12.7148 30.9377
rfemur -98.832 -50.1699 26.1004
rtibia 124.608
rfoot 3.29631 3.97152
rtoes -25.0541
lfemur -88.544 27.6317 -51.4827
ltibia 123.79
lfoot -11.2608 -4.94406
ltoes -45.3041
148
root 1.09894 3.80446 -18.0584 138.531 2.7125 -136.471
lowerback 32.0449 0.646058 -1.13844
upperback 8.9655 -1.51004 5.40734
thorax -6.59897 -1.92106 6.96245
lowerneck -10.6126 -7.46829 -7.82597
upperneck 12.9227 -10.3555 10.8796
head 6.66702 -4.46647 3.79549
rclavicle 9.54166e-015 1.81292e-013
rhumerus 23.8429 -18.3502 -38.1282
rradius 85.5862
rwrist -12.9773
rhand -34.4835 -8.8488
rfingers 7.12502
rthumb -7.64627 -38.6906
lclavicle 9.54166e-015 1.81292e-013
lhumerus -22.8528 2.28345 76.3531
lradius 46.1424
lwrist -48.798
lhand -41.9999 0.742266
lfingers 7.12502
lthumb -14.8951 30.1868
rfemur -97.9863 -48.2854 25.2516
rtibia 122.88
rfoot 3.32495 5.01941
rtoes -26.5151
lfemur -89.2269 28.0054 -51.9086
ltibia 124.891
lfoot -11.1714 -5.21211
ltoes -41.2635
149
root 1.14895 3.95721 -18.2236 139.308 0.748489 -135.17
lowerback 33.6578 0.346291 0.171844
upperback 9.15813 -1.62784 5.637
thorax -6.99469 -2.06468 6.59333
lowerneck -10.9531 -7.50908 -7.69305
upperneck 12.7109 -10.4736 11.4383
head 6.69716 -4.45901 3.93201
rclavicle 4.41302e-014 2.06736e-013
rhumerus 24.7169 -19.0774 -37.7969
rradius 85.2327
rwrist -13.0939
rhand -34.6222 -9.30664
rfingers 7.12502
rthumb -7.78011 -39.1435
lclavicle 4.41302e-014 2.06736e-013
lhumerus -21.112 1.34038 76.8517
lradius 45.3735
lwrist -48.3496
lhand -43.1721 0.401068
lfingers 7.12502
lthumb -16.0241 29.7584
rfemur -97.2772 -46.4655 24.4802
rtibia 121.085
rfoot 3.21617 6.39438
rtoes -28.0149
lfemur -89.9401 28.4078 -52.4355
ltibia 125.951
lfoot -11.1105 -5.03431
ltoes -37.0374
150
root 1.19693 4.11363 -18.3899 139.958 -1.19194 -134.006
lowerback 35.2357 0.024245 1.45277
upperback 9.33228 -1.73877 5.85902
thorax -7.36746 -2.20762 6.24217
lowerneck -11.2774 -7.53768 -7.566
upperneck 12.4405 -10.5616 11.94
head 6.70078 -4.44502 4.05485
rclavicle -5.08889e-014 -1.49486e-013
rhumerus 25.6618 -19.6311 -37.5241
rradius 84.7573
rwrist -12.9956
rhand -34.7399 -9.62311
rfingers 7.12502
rthumb -7.89378 -39.4557
lclavicle -5.08889e-014 -1.49486e-013
lhumerus -19.424 0.398533 77.3296
lradius 45.0447
lwrist -46.1863
lhand -42.8078 -1.35396
lfingers 7.12502
lthumb -15.6733 28.0312
rfemur -96.7196 -44.694 23.8257
rtibia 119.24
rfoot 2.93347 7.92332
rtoes -29.5158
lfemur -90.7018 28.8643 -53.1013
ltibia 126.996
lfoot -11.1317 -4.71072
ltoes -32.5149
151
root 1.24258 4.27354 -18.5596 140.526 -3.09014 -133.007
lowerback 36.811 -0.304704 2.68445
upperback 9.39889 -1.82484 6.04558
thorax -7.70058 -2.33903 5.90941
lowerneck -11.5021 -7.56097 -7.48631
upperneck 12.0607 -10.6268 12.4378
head 6.65306 -4.43045 4.18952
rclavicle -5.24419e-014 -6.36111e-014
rhumerus 26.6302 -19.9969 -37.2367
rradius 84.1741
rwrist -12.8404
rhand -34.7837 -9.7658
rfingers 7.12502
rthumb -7.93603 -39.5968
lclavicle -5.24419e-014 -6.36111e-014
lhumerus -17.8747 -0.623511 77.7406
lradius 45.1123
lwrist -42.8722
lhand -41.5728 -3.01148
lfingers 7.12502
lthumb -14.4836 26.463
rfemur -96.367 -42.9524 23.3295
rtibia 117.372
rfoot 2.5113 9.4476
rtoes -31.1749
lfemur -91.5203 29.357 -53.9108
ltibia 128.06
lfoot -11.1691 -4.26698
ltoes -27.5471
